<?xml version="1.0" encoding="UTF-8" standalone="no" ?>
<!DOCTYPE svg PUBLIC "-//W3C//DTD SVG 1.1//EN" "http://www.w3.org/Graphics/SVG/1.1/DTD/svg11.dtd">
<svg xmlns="http://www.w3.org/2000/svg" xmlns:xlink="http://www.w3.org/1999/xlink" version="1.1" width="896.5352343750001" height="333.11" xml:space="preserve">
<desc>Created with Fabric.js 1.6.0-rc.1</desc>
<defs></defs>
  <g transform="translate(601.15 134.61) scale(2.1 2.1)">
   <text font-family="Kronika" font-size="40" font-weight="normal" style="stroke: none; stroke-width: 1; stroke-dasharray: none; stroke-linecap: butt; stroke-linejoin: miter; stroke-miterlimit: 10; fill: #ff5323; fill-rule: nonzero; opacity: 1;" ><tspan x="-136.4" y="8.98" style="stroke: none; stroke-width: 0; stroke-dasharray: none; stroke-linecap: butt; stroke-linejoin: miter; stroke-miterlimit: 4; fill: #ff5323; fill-rule: ; opacity: 1;">S</tspan><tspan x="-110.46" y="8.98" style="stroke: none; stroke-width: 0; stroke-dasharray: none; stroke-linecap: butt; stroke-linejoin: miter; stroke-miterlimit: 4; fill: #ff5323; fill-rule: ; opacity: 1;">V</tspan><tspan x="-80.99" y="8.98" style="stroke: none; stroke-width: 0; stroke-dasharray: none; stroke-linecap: butt; stroke-linejoin: miter; stroke-miterlimit: 4; fill: #ff5323; fill-rule: ; opacity: 1;"> </tspan><tspan x="-64.7" y="8.98" style="stroke: none; stroke-width: 0; stroke-dasharray: none; stroke-linecap: butt; stroke-linejoin: miter; stroke-miterlimit: 4; fill: #ff5323; fill-rule: ; opacity: 1;">P</tspan><tspan x="-41.14" y="8.98" style="stroke: none; stroke-width: 0; stroke-dasharray: none; stroke-linecap: butt; stroke-linejoin: miter; stroke-miterlimit: 4; fill: #ff5323; fill-rule: ; opacity: 1;">I</tspan><tspan x="-26.4" y="8.98" style="stroke: none; stroke-width: 0; stroke-dasharray: none; stroke-linecap: butt; stroke-linejoin: miter; stroke-miterlimit: 4; fill: #ff5323; fill-rule: ; opacity: 1;">Z</tspan><tspan x="5.95" y="8.98" style="stroke: none; stroke-width: 0; stroke-dasharray: none; stroke-linecap: butt; stroke-linejoin: miter; stroke-miterlimit: 4; fill: #ff5323; fill-rule: ; opacity: 1;">Z</tspan><tspan x="38.29" y="8.98" style="stroke: none; stroke-width: 0; stroke-dasharray: none; stroke-linecap: butt; stroke-linejoin: miter; stroke-miterlimit: 4; fill: #ff5323; fill-rule: ; opacity: 1;">E</tspan><tspan x="64.81" y="8.98" style="stroke: none; stroke-width: 0; stroke-dasharray: none; stroke-linecap: butt; stroke-linejoin: miter; stroke-miterlimit: 4; fill: #ff5323; fill-rule: ; opacity: 1;">R</tspan><tspan x="89.01" y="8.98" style="stroke: none; stroke-width: 0; stroke-dasharray: none; stroke-linecap: butt; stroke-linejoin: miter; stroke-miterlimit: 4; fill: #ff5323; fill-rule: ; opacity: 1;">I</tspan><tspan x="103.76" y="8.98" style="stroke: none; stroke-width: 0; stroke-dasharray: none; stroke-linecap: butt; stroke-linejoin: miter; stroke-miterlimit: 4; fill: #ff5323; fill-rule: ; opacity: 1;">A</tspan></text>
 </g>
  <g transform="translate(592.19 208.46) scale(1.21 1.21)">
   <text font-family="Kronika" font-size="40" font-weight="normal" style="stroke: none; stroke-width: 1; stroke-dasharray: none; stroke-linecap: butt; stroke-linejoin: miter; stroke-miterlimit: 10; fill: #000000; fill-rule: nonzero; opacity: 1;" ><tspan x="-188.36" y="8.98" style="stroke: none; stroke-width: 0; stroke-dasharray: none; stroke-linecap: butt; stroke-linejoin: miter; stroke-miterlimit: 4; fill: #000000; fill-rule: ; opacity: 1;">L</tspan><tspan x="-163.03" y="8.98" style="stroke: none; stroke-width: 0; stroke-dasharray: none; stroke-linecap: butt; stroke-linejoin: miter; stroke-miterlimit: 4; fill: #000000; fill-rule: ; opacity: 1;">O</tspan><tspan x="-128.59" y="8.98" style="stroke: none; stroke-width: 0; stroke-dasharray: none; stroke-linecap: butt; stroke-linejoin: miter; stroke-miterlimit: 4; fill: #000000; fill-rule: ; opacity: 1;">V</tspan><tspan x="-99.12" y="8.98" style="stroke: none; stroke-width: 0; stroke-dasharray: none; stroke-linecap: butt; stroke-linejoin: miter; stroke-miterlimit: 4; fill: #000000; fill-rule: ; opacity: 1;">E</tspan><tspan x="-72.6" y="8.98" style="stroke: none; stroke-width: 0; stroke-dasharray: none; stroke-linecap: butt; stroke-linejoin: miter; stroke-miterlimit: 4; fill: #000000; fill-rule: ; opacity: 1;"> </tspan><tspan x="-56.31" y="8.98" style="stroke: none; stroke-width: 0; stroke-dasharray: none; stroke-linecap: butt; stroke-linejoin: miter; stroke-miterlimit: 4; fill: #000000; fill-rule: ; opacity: 1;">A</tspan><tspan x="-23.67" y="8.98" style="stroke: none; stroke-width: 0; stroke-dasharray: none; stroke-linecap: butt; stroke-linejoin: miter; stroke-miterlimit: 4; fill: #000000; fill-rule: ; opacity: 1;">t</tspan><tspan x="-8.87" y="8.98" style="stroke: none; stroke-width: 0; stroke-dasharray: none; stroke-linecap: butt; stroke-linejoin: miter; stroke-miterlimit: 4; fill: #000000; fill-rule: ; opacity: 1;"> </tspan><tspan x="7.42" y="8.98" style="stroke: none; stroke-width: 0; stroke-dasharray: none; stroke-linecap: butt; stroke-linejoin: miter; stroke-miterlimit: 4; fill: #000000; fill-rule: ; opacity: 1;">f</tspan><tspan x="23.59" y="8.98" style="stroke: none; stroke-width: 0; stroke-dasharray: none; stroke-linecap: butt; stroke-linejoin: miter; stroke-miterlimit: 4; fill: #000000; fill-rule: ; opacity: 1;">i</tspan><tspan x="32.75" y="8.98" style="stroke: none; stroke-width: 0; stroke-dasharray: none; stroke-linecap: butt; stroke-linejoin: miter; stroke-miterlimit: 4; fill: #000000; fill-rule: ; opacity: 1;">r</tspan><tspan x="51.07" y="8.98" style="stroke: none; stroke-width: 0; stroke-dasharray: none; stroke-linecap: butt; stroke-linejoin: miter; stroke-miterlimit: 4; fill: #000000; fill-rule: ; opacity: 1;">s</tspan><tspan x="71.89" y="8.98" style="stroke: none; stroke-width: 0; stroke-dasharray: none; stroke-linecap: butt; stroke-linejoin: miter; stroke-miterlimit: 4; fill: #000000; fill-rule: ; opacity: 1;">t</tspan><tspan x="86.7" y="8.98" style="stroke: none; stroke-width: 0; stroke-dasharray: none; stroke-linecap: butt; stroke-linejoin: miter; stroke-miterlimit: 4; fill: #000000; fill-rule: ; opacity: 1;"> </tspan><tspan x="102.99" y="8.98" style="stroke: none; stroke-width: 0; stroke-dasharray: none; stroke-linecap: butt; stroke-linejoin: miter; stroke-miterlimit: 4; fill: #000000; fill-rule: ; opacity: 1;">s</tspan><tspan x="123.81" y="8.98" style="stroke: none; stroke-width: 0; stroke-dasharray: none; stroke-linecap: butt; stroke-linejoin: miter; stroke-miterlimit: 4; fill: #000000; fill-rule: ; opacity: 1;">l</tspan><tspan x="132.13" y="8.98" style="stroke: none; stroke-width: 0; stroke-dasharray: none; stroke-linecap: butt; stroke-linejoin: miter; stroke-miterlimit: 4; fill: #000000; fill-rule: ; opacity: 1;">i</tspan><tspan x="141.29" y="8.98" style="stroke: none; stroke-width: 0; stroke-dasharray: none; stroke-linecap: butt; stroke-linejoin: miter; stroke-miterlimit: 4; fill: #000000; fill-rule: ; opacity: 1;">c</tspan><tspan x="163.98" y="8.98" style="stroke: none; stroke-width: 0; stroke-dasharray: none; stroke-linecap: butt; stroke-linejoin: miter; stroke-miterlimit: 4; fill: #000000; fill-rule: ; opacity: 1;">e</tspan></text>
 </g>
<g style="stroke: none; stroke-width: 1; stroke-dasharray: none; stroke-linecap: butt; stroke-linejoin: miter; stroke-miterlimit: 10; fill: none; fill-rule: nonzero; opacity: 1;" transform="translate(10 10) scale(0.63 0.63)" >
  <path d="M 139.88 384.024 c -13.176 0 -23.896 -10.768 -23.896 -24 v -56.016 h 16 v 56.016 c 0 4.488 3.472 8 7.896 8 c 4.472 0 8.104 -3.632 8.104 -8.096 v -39.912 h 16 v 39.912 C 163.976 373.216 153.168 384.024 139.88 384.024 z" style="stroke: none; stroke-width: 1; stroke-dasharray: none; stroke-linecap: butt; stroke-linejoin: miter; stroke-miterlimit: 10; fill: #333333; fill-rule: nonzero; opacity: 1;" transform=" matrix(1 0 0 1 0 0) " stroke-linecap="round" />
  <path d="M 276.008 472.048 c -29.152 0 -40.008 -24.536 -40.008 -40.008 c 0 -4.184 -3.824 -8.008 -8.008 -8.008 s -8 3.824 -8 8.008 c 0.008 6.296 -2.512 12.296 -7.112 16.888 c -4.584 4.584 -10.584 7.112 -16.888 7.112 c -13.008 0 -24 -10.992 -24 -24 l -0.008 -88.024 h 16 l 0.008 88.024 c 0 4.184 3.816 8 8 8 s 8.008 -3.816 8.008 -8 c -0.008 -6.2 2.584 -12.368 7.112 -16.888 c 4.512 -4.52 10.672 -7.12 16.88 -7.12 c 13.016 0 24.008 10.992 24.008 24.008 c 0 6.68 4.312 24.008 24.008 24.008 s 24.008 -17.328 24.008 -24.008 h 16 C 316.016 447.504 305.16 472.048 276.008 472.048 z" style="stroke: none; stroke-width: 1; stroke-dasharray: none; stroke-linecap: butt; stroke-linejoin: miter; stroke-miterlimit: 10; fill: #333333; fill-rule: nonzero; opacity: 1;" transform=" matrix(1 0 0 1 0 0) " stroke-linecap="round" />
  <path d="M 420.04 87.968 C 396 80 355.632 72 324 72 c -48 0 -85.28 12.128 -120.008 31.976 c -56.008 32 -88.8 90.344 -112.024 160.024 c -2.6 7.8 -6.048 13.032 -9.784 16.592 l 284.76 205.648 c 2.512 2.256 12.144 9.76 29.056 9.76 c 31.64 0 40.024 -26.136 40.04 -39.96 V 90.88 C 430.888 90.712 425.472 89.768 420.04 87.968 z" style="stroke: none; stroke-width: 1; stroke-dasharray: none; stroke-linecap: butt; stroke-linejoin: miter; stroke-miterlimit: 10; fill: #ff5125; fill-rule: nonzero; opacity: 1;" transform=" matrix(1 0 0 1 0 0) " stroke-linecap="round" />
  <path d="M 59.96 296.008 c -29.464 0 -39.96 -20.64 -39.96 -39.96 c 0 -49.896 52.192 -167.136 156.192 -223.136 C 215.064 11.984 268.616 0 323.224 0 c 0.264 0 0.52 0 0.792 0 c 52.248 0.112 100.2 9.168 131.56 24.84 C 456.416 25.256 476 35.384 476 64 c 0 11.6 -4.752 21.416 -13.368 27.64 c -11.216 8.112 -28.064 9.576 -45.112 3.92 C 394.2 87.832 354.576 80 324 80 c -42.832 0 -78.616 9.536 -116.04 30.92 c -47.64 27.216 -82.088 76.664 -108.408 155.608 C 89.736 296.008 68.104 296.008 59.96 296.008 z M 323.264 16 c -51.312 0 -103.408 11.568 -139.488 31.008 C 78.528 103.672 36 217.944 36 256.048 c 0 10.928 4.16 23.96 23.96 23.96 c 7.696 0 18.24 0 24.424 -18.536 c 27.632 -82.896 64.376 -135.16 115.64 -164.44 C 239.464 74.496 278.856 64 324 64 c 33.776 0 74.768 8.496 98.552 16.376 c 12.016 3.976 23.76 3.312 30.712 -1.712 C 457.736 75.44 460 70.504 460 64 c 0 -18.392 -11.2 -24.64 -11.68 -24.896 c -29.112 -14.56 -74.472 -23 -124.336 -23.104 C 323.744 16 323.504 16 323.264 16 z" style="stroke: none; stroke-width: 1; stroke-dasharray: none; stroke-linecap: butt; stroke-linejoin: miter; stroke-miterlimit: 10; fill: #333333; fill-rule: nonzero; opacity: 1;" transform=" matrix(1 0 0 1 0 0) " stroke-linecap="round" />
  <rect x="303.03" y="372" rx="0" ry="0" width="33.94" height="16" style="stroke: none; stroke-width: 1; stroke-dasharray: none; stroke-linecap: butt; stroke-linejoin: miter; stroke-miterlimit: 10; fill: #333333; fill-rule: nonzero; opacity: 1;" transform=" matrix(-0.7071 0.7071 -0.7071 -0.7071 814.9756 422.4161) "/>
  <rect x="239.51" y="223.96" rx="0" ry="0" width="32.99" height="15.99" style="stroke: none; stroke-width: 1; stroke-dasharray: none; stroke-linecap: butt; stroke-linejoin: miter; stroke-miterlimit: 10; fill: #333333; fill-rule: nonzero; opacity: 1;" transform=" matrix(-0.2423 0.9702 -0.9702 -0.2423 543.079 39.7859) "/>
  <rect x="148" y="216" rx="0" ry="0" width="32" height="16" style="stroke: none; stroke-width: 1; stroke-dasharray: none; stroke-linecap: butt; stroke-linejoin: miter; stroke-miterlimit: 10; fill: #333333; fill-rule: nonzero; opacity: 1;" transform=" matrix(1 0 0 1 0 0) "/>
  <rect x="359.04" y="156" rx="0" ry="0" width="33.94" height="16" style="stroke: none; stroke-width: 1; stroke-dasharray: none; stroke-linecap: butt; stroke-linejoin: miter; stroke-miterlimit: 10; fill: #333333; fill-rule: nonzero; opacity: 1;" transform=" matrix(-0.7071 0.7071 -0.7071 -0.7071 757.8612 14.0766) "/>
  <rect x="296.02" y="105.57" rx="0" ry="0" width="16" height="28.85" style="stroke: none; stroke-width: 1; stroke-dasharray: none; stroke-linecap: butt; stroke-linejoin: miter; stroke-miterlimit: 10; fill: #333333; fill-rule: nonzero; opacity: 1;" transform=" matrix(-0.5546 0.8321 -0.8321 -0.5546 572.4795 -66.4335) "/>
  <rect x="372.04" y="293.59" rx="0" ry="0" width="16" height="28.86" style="stroke: none; stroke-width: 1; stroke-dasharray: none; stroke-linecap: butt; stroke-linejoin: miter; stroke-miterlimit: 10; fill: #333333; fill-rule: nonzero; opacity: 1;" transform=" matrix(-0.832 0.5548 -0.5548 -0.832 867.1147 353.4473) "/>
  <path d="M 236 183.984 c -13.232 0 -24.008 -10.768 -24.008 -24 s 10.776 -24 24.008 -24 s 24 10.768 24 24 S 249.232 183.984 236 183.984 z M 236 151.984 c -4.416 0 -8.008 3.584 -8.008 8 s 3.592 8 8.008 8 s 8 -3.584 8 -8 S 240.416 151.984 236 151.984 z" style="stroke: none; stroke-width: 1; stroke-dasharray: none; stroke-linecap: butt; stroke-linejoin: miter; stroke-miterlimit: 10; fill: #333333; fill-rule: nonzero; opacity: 1;" transform=" matrix(1 0 0 1 0 0) " stroke-linecap="round" />
  <path d="M 187.984 304.008 c -13.232 0 -24 -10.768 -24 -24 s 10.768 -24.008 24 -24.008 s 24.008 10.776 24.008 24.008 S 201.216 304.008 187.984 304.008 z M 187.984 272 c -4.416 0 -8 3.592 -8 8.008 s 3.584 8 8 8 s 8.008 -3.584 8.008 -8 S 192.4 272 187.984 272 z" style="stroke: none; stroke-width: 1; stroke-dasharray: none; stroke-linecap: butt; stroke-linejoin: miter; stroke-miterlimit: 10; fill: #333333; fill-rule: nonzero; opacity: 1;" transform=" matrix(1 0 0 1 0 0) " stroke-linecap="round" />
  <path d="M 332.016 256 c -17.648 0 -32 -14.352 -32 -32 s 14.352 -32.008 32 -32.008 s 32.008 14.36 32.008 32.008 S 349.664 256 332.016 256 z M 332.016 207.992 c -8.824 0 -16 7.176 -16 16.008 c 0 8.824 7.176 16 16 16 c 8.832 0 16.008 -7.176 16.008 -16 C 348.024 215.168 340.848 207.992 332.016 207.992 z" style="stroke: none; stroke-width: 1; stroke-dasharray: none; stroke-linecap: butt; stroke-linejoin: miter; stroke-miterlimit: 10; fill: #333333; fill-rule: nonzero; opacity: 1;" transform=" matrix(1 0 0 1 0 0) " stroke-linecap="round" />
  <path d="M 379.992 424.008 c -13.232 0 -24 -10.776 -24 -24.008 s 10.768 -24 24 -24 S 404 386.768 404 400 S 393.224 424.008 379.992 424.008 z M 379.992 392 c -4.416 0 -8 3.584 -8 8 s 3.584 8.008 8 8.008 S 388 404.416 388 400 S 384.408 392 379.992 392 z" style="stroke: none; stroke-width: 1; stroke-dasharray: none; stroke-linecap: butt; stroke-linejoin: miter; stroke-miterlimit: 10; fill: #333333; fill-rule: nonzero; opacity: 1;" transform=" matrix(1 0 0 1 0 0) " stroke-linecap="round" />
  <path d="M 284.008 344.016 c -17.648 0 -32.008 -14.352 -32.008 -32 s 14.36 -32.008 32.008 -32.008 s 32.008 14.36 32.008 32.008 S 301.656 344.016 284.008 344.016 z M 284.008 296.008 c -8.832 0 -16.008 7.176 -16.008 16.008 c 0 8.824 7.176 16 16.008 16 s 16.008 -7.176 16.008 -16 C 300.016 303.184 292.84 296.008 284.008 296.008 z" style="stroke: none; stroke-width: 1; stroke-dasharray: none; stroke-linecap: butt; stroke-linejoin: miter; stroke-miterlimit: 10; fill: #333333; fill-rule: nonzero; opacity: 1;" transform=" matrix(1 0 0 1 0 0) " stroke-linecap="round" />
</g>
</svg>